<?xml version="1.0" standalone="no"?><!DOCTYPE svg PUBLIC "-//W3C//DTD SVG 1.1//EN" "http://www.w3.org/Graphics/SVG/1.1/DTD/svg11.dtd"><svg t="1764749556541" class="icon" viewBox="0 0 1024 1024" version="1.1" xmlns="http://www.w3.org/2000/svg" p-id="23430" xmlns:xlink="http://www.w3.org/1999/xlink" width="200" height="200"><path d="M933.925863 842.790392c0 19.824018-16.430147 36.254165-36.254165 36.254165h-261.677044c1.712795 36.254165 6.216812 74.189407 6.216812 111.014503 0 18.682155-15.288283 33.970438-34.54137 33.970438h-181.239106a34.192467 34.192467 0 0 1-34.54137-33.970438c0-36.825097 4.535735-74.760338 6.216812-111.014503h-261.677044a36.507912 36.507912 0 0 1-36.254165-36.254165c0-9.642403 3.964804-18.682155 10.752548-25.501618l227.706606-228.245819H208.937718a36.507912 36.507912 0 0 1-36.254165-36.254165c0-9.642403 3.964804-18.682155 10.752548-25.501617l227.706606-228.245819H299.557271a36.507912 36.507912 0 0 1-36.254165-36.254165c0-9.642403 3.964804-18.682155 10.752548-25.501618L491.548926 19.7923c6.787744-6.787744 15.859215-10.752548 25.501617-10.752548s18.682155 3.964804 25.501617 10.752548l217.493272 217.493271c6.787744 6.787744 10.752548 15.859215 10.752547 25.501618 0 19.824018-16.430147 36.254165-36.254165 36.254165h-111.585435l227.706606 228.245819c6.787744 6.787744 10.752548 15.859215 10.752548 25.501617 0 19.824018-16.430147 36.254165-36.254165 36.254165h-129.696659l227.706606 228.245819c6.787744 6.787744 10.752548 15.859215 10.752548 25.501618z" p-id="23431"></path></svg>