<?xml version="1.0" standalone="no"?><!DOCTYPE svg PUBLIC "-//W3C//DTD SVG 1.1//EN" "http://www.w3.org/Graphics/SVG/1.1/DTD/svg11.dtd"><svg t="1764744873704" class="icon" viewBox="0 0 1024 1024" version="1.1" xmlns="http://www.w3.org/2000/svg" p-id="5614" xmlns:xlink="http://www.w3.org/1999/xlink" width="200" height="200"><path d="M128 426.666667q0-159.061333 112.469333-271.530667Q352.938667 42.666667 512 42.666667q159.061333 0 271.530667 112.469333Q896 267.605333 896 426.666667v512a42.666667 42.666667 0 0 1-72.832 30.165333L768 913.664l-55.168 55.168a42.709333 42.709333 0 0 1-65.664-6.506667L597.333333 887.594667l-49.834666 74.730666a42.666667 42.666667 0 0 1-70.997334 0L426.666667 887.594667l-49.834667 74.730666a42.709333 42.709333 0 0 1-65.664 6.506667L256 913.664l-55.168 55.168A42.666667 42.666667 0 0 1 128 938.666667V426.666667z m85.333333 0v409.002666l12.501334-12.501333a42.666667 42.666667 0 0 1 60.330666 0l48.533334 48.533333 56.469333-84.693333a42.666667 42.666667 0 0 1 70.997333 0L512 861.738667l49.834667-74.730667a42.666667 42.666667 0 0 1 70.997333 0l56.469333 84.693333 48.533334-48.533333a42.666667 42.666667 0 0 1 60.330666 0l12.501334 12.501333V426.666667q0-123.712-87.466667-211.2Q635.712 128 512 128t-211.2 87.466667Q213.333333 302.954667 213.333333 426.666667z" p-id="5615" fill="#8a8a8a"></path><path d="M405.333333 469.333333h42.666667a42.666667 42.666667 0 1 0 0-85.333333h-42.666667a42.666667 42.666667 0 1 0 0 85.333333zM661.333333 469.333333h42.666667a42.666667 42.666667 0 1 0 0-85.333333h-42.666667a42.666667 42.666667 0 1 0 0 85.333333z" p-id="5616" fill="#8a8a8a"></path></svg>