<?xml version="1.0" standalone="no"?><!DOCTYPE svg PUBLIC "-//W3C//DTD SVG 1.1//EN" "http://www.w3.org/Graphics/SVG/1.1/DTD/svg11.dtd"><svg t="1764747365126" class="icon" viewBox="0 0 1047 1024" version="1.1" xmlns="http://www.w3.org/2000/svg" p-id="15137" xmlns:xlink="http://www.w3.org/1999/xlink" width="204.4921875" height="200"><path d="M742.4 112.64c-44.544-47.616-113.664-70.656-211.456-70.656-119.296 0-178.688 56.832-207.36 104.96-30.72 51.2-33.28 102.4-33.28 104.448v1.024c-0.512 302.592-0.512 665.088 0 676.864v-0.512 7.68c0 20.48 9.216 67.072 93.696 67.072 40.96 0 64.512-15.872 76.8-29.696 24.064-25.6 24.064-57.856 23.552-66.048V269.824c0-5.12 2.56-9.728 6.656-12.288 19.456-12.288 41.984-19.456 65.024-20.48h2.048c15.872 1.024 30.72 7.168 43.008 17.408 2.56 2.56 4.608 6.144 4.608 10.752V358.4c0 21.504 9.216 41.984 24.576 56.32 39.936 36.352 92.672 36.864 140.8 0 17.92-13.312 28.672-33.792 30.208-55.808C808.96 242.176 790.528 163.84 742.4 112.64z m-2.048 242.176c-0.512 4.096-2.56 8.192-6.144 10.752-36.352 27.648-55.296 10.24-62.464 3.584-3.072-2.56-4.608-6.656-4.608-10.752V265.216c0-22.528-9.216-43.008-26.112-57.344-22.016-18.944-50.176-30.208-79.36-31.744h-8.192c-33.792 1.536-67.072 11.776-95.744 29.696-22.016 13.824-35.328 37.888-35.328 64V911.36s0.512 13.312-7.68 22.016c-6.144 6.144-16.896 9.728-31.744 9.728-12.288 0-19.968-1.024-25.088-2.56-4.608-3.072-6.656-7.68-7.168-10.752v-4.096c-0.512-21.504 0-490.496 0-671.744 0.512-4.608 3.584-41.472 26.112-76.8 30.208-48.64 81.92-73.216 153.6-73.216 79.872 0 134.656 16.896 166.4 51.2 36.352 37.376 49.664 100.864 43.52 199.68z" p-id="15138" fill="#8a8a8a"></path></svg>