<?xml version="1.0" standalone="no"?><!DOCTYPE svg PUBLIC "-//W3C//DTD SVG 1.1//EN" "http://www.w3.org/Graphics/SVG/1.1/DTD/svg11.dtd"><svg t="1764745526071" class="icon" viewBox="0 0 1024 1024" version="1.1" xmlns="http://www.w3.org/2000/svg" p-id="9202" xmlns:xlink="http://www.w3.org/1999/xlink" width="200" height="200"><path d="M244.736 563.42755555c-30.03733333 21.16266667-57.79911111 40.84622222-82.03377778 58.14044445-12.40177778 8.98844445-22.18666667 16.27022222-28.672 21.27644445l15.70133333 23.77955555c13.08444445-9.216 30.72-21.504 47.78666667-33.45066667l3.52711111-2.50311111c63.488-44.37333333 159.40266667-111.50222222 195.12888889-138.92266667 48.24177778-37.09155555 218.56711111-150.75555555 275.22844445-188.52977777-2.048-9.10222222-4.43733333-15.13244445-6.25777778-18.65955556-30.26488889 15.13244445-128.45511111 78.62044445-267.71911111 173.39733333-53.81688889 36.63644445-107.40622222 73.728-152.68977778 105.472z" fill="#d81e06" p-id="9203"></path><path d="M633.51466667 275.11466667c-9.216-18.88711111-25.71377778-49.03822222-48.81066667-76.45866667-29.24088889-34.70222222-60.75733333-55.40977778-93.52533333-61.78133333-9.216-1.82044445-18.65955555-2.73066667-27.76177778-2.73066667-15.01866667 0-29.92355555 2.27555555-45.73866667 7.05422222-49.26577778 14.90488889-104.10666667 53.36177778-179.88266667 106.496l-11.264 7.85066667c-57.45777778 40.27733333-102.85511111 72.02133333-133.91644444 102.62755556-30.26488889 29.696-44.37333333 56.20622222-45.73866666 85.56088888-1.93422222 41.07377778 33.90577778 95.80088889 103.53777777 158.49244445C283.98933333 506.88 527.92888889 336.44088889 633.51466667 275.11466667z" fill="#000000" p-id="9204"></path><path d="M1006.36444445 268.06044445c-27.30666667-34.816-117.30488889-18.432-241.43644445 8.53333333h-0.11377778c-23.43822222 5.12-48.24177778 10.46755555-72.704 15.24622222-3.75466667-13.53955555-8.98844445-23.66577778-14.90488889-28.55822222l-0.45511111-0.34133333c-3.98222222-3.18577778-9.32977778-4.096-14.10844444-2.16177778l-0.45511111 0.22755555c-2.16177778 0.91022222-5.00622222 2.16177778-8.30577778 3.86844445-21.84533333-44.82844445-75.20711111-134.37155555-158.37866667-150.30044445-27.98933333-5.34755555-55.63733333-3.75466667-84.42311111 5.00622223-52.79288889 15.92888889-108.77155555 55.296-186.368 109.68177777l-11.15022222 7.85066667c-116.05333333 81.12355555-185.91288889 130.16177778-189.44 205.71022222-2.16177778 48.01422222 34.01955555 106.26844445 107.52 173.28355556-8.07822222 6.03022222-14.10844445 10.58133333-17.63555556 13.65333333-5.80266667 4.89244445-7.05422222 13.42577778-2.84444444 19.79733333l17.63555556 26.51022222h-0.34133334l-3.75466666 5.12c-47.33155555 65.08088889-100.12444445 154.624-111.50222223 207.98577778l-2.048 9.44355556c-2.16177778 10.46755555 9.78488889 17.97688889 18.20444445 11.37777778l7.62311111-5.91644445c11.03644445-8.53333333 26.51022222-19.68355555 46.53511111-31.85777777 26.51022222-16.15644445 60.87111111-34.24711111 102.85511111-50.51733334 3.75466667-1.47911111 7.50933333-2.84444445 11.264-4.20977778 11.94666667-4.43733333 24.576-8.64711111 37.66044445-12.62933333 27.30666667-8.30577778 55.86488889-15.13244445 84.76444444-20.36622222 24.12088889-4.32355555 50.85866667-10.92266667 79.64444444-19.68355556 108.08888889-32.768 236.544-92.95644445 343.72266667-161.10933333 87.95022222-55.86488889 202.752-142.90488889 250.19733333-239.72977778 22.528-45.62488889 26.73777778-77.93777778 12.74311112-95.91466666z m-334.96177778 35.15733333c-56.66133333 37.66044445-226.98666667 151.32444445-275.22844445 188.52977777-35.61244445 27.42044445-131.64088889 94.54933333-195.12888889 138.92266667l-3.52711111 2.50311111c-17.06666667 11.94666667-34.70222222 24.23466667-47.78666667 33.45066667L134.03022222 642.84444445c6.48533333-5.00622222 16.27022222-12.288 28.672-21.27644445 24.12088889-17.29422222 51.99644445-36.97777778 82.03377778-58.14044445 45.28355555-31.744 98.98666667-68.72177778 152.68977778-105.35822222C536.576 363.29244445 634.88 299.69066667 665.14488889 284.672c1.82044445 3.52711111 4.20977778 9.55733333 6.25777778 18.54577778zM46.87644445 443.96088889c1.36533333-29.46844445 15.47377778-55.86488889 45.73866666-85.56088889 31.06133333-30.49244445 76.45866667-62.35022222 133.91644444-102.62755555l11.264-7.85066667c75.776-53.13422222 130.61688889-91.59111111 179.88266667-106.496 15.70133333-4.77866667 30.72-7.05422222 45.73866667-7.05422223 9.216 0 18.54577778 0.91022222 27.76177778 2.73066667 32.768 6.25777778 64.28444445 27.07911111 93.52533333 61.78133333 23.09688889 27.42044445 39.70844445 57.68533333 48.81066667 76.45866667-105.58577778 61.09866667-349.52533333 231.53777778-483.10044445 326.99733333-69.74577778-62.57777778-105.472-117.30488889-103.53777777-158.37866666z m926.37866666-89.88444444C928.08533333 446.12266667 816.81066667 530.20444445 731.36355555 584.59022222c-105.472 67.12888889-231.87911111 126.40711111-338.14755555 158.49244445-27.87555555 8.41955555-53.81688889 14.90488889-77.02755555 19.00088888-29.80977778 5.34755555-59.16444445 12.40177778-87.38133334 20.93511112-12.97066667 3.98222222-26.05511111 8.30577778-38.912 12.97066666-4.66488889 1.70666667-8.30577778 3.072-11.71911111 4.43733334-37.77422222 14.56355555-73.61422222 32.19911111-106.496 52.224-10.46755555 6.37155555-20.48 12.97066667-30.03733333 19.56977778 17.74933333-50.28977778 61.21244445-122.31111111 99.328-175.104 0.56888889-0.11377778 1.25155555-0.22755555 1.93422222-0.45511112l0.56888889-0.11377778 0.56888889-0.11377777c4.20977778-1.25155555 8.07822222-3.18577778 11.71911111-5.80266667 11.03644445-7.73688889 28.78577778-20.25244445 57.57155555-40.39111111 68.49422222-47.90044445 162.24711111-113.43644445 199.56622222-142.10844445C461.36888889 471.04 636.01777778 354.64533333 688.35555555 319.82933333l0.34133334-0.22755555 0.34133333-0.22755556c1.93422222-1.47911111 3.86844445-3.072 5.57511111-4.77866667 25.37244445-4.89244445 50.85866667-10.46755555 74.86577778-15.70133333l0.91022222-0.22755555h0.11377778c67.12888889-14.56355555 130.95822222-27.648 173.51111111-27.648 22.86933333 0 38.57066667 3.98222222 44.25955556 11.15022222 6.144 7.62311111 5.23377778 30.49244445-15.01866667 71.90755556z" fill="#161616" p-id="9205"></path><path d="M944.128 271.01866667c-42.66666667 0-106.38222222 13.08444445-173.51111111 27.648h-0.11377778l-0.91022222 0.22755555c-24.00711111 5.23377778-49.60711111 10.69511111-74.86577778 15.70133333-1.70666667 1.70666667-3.64088889 3.29955555-5.57511111 4.77866667l-0.34133333 0.22755556-0.34133334 0.22755555C636.01777778 354.64533333 461.36888889 471.04 412.89955555 508.35911111c-37.31911111 28.672-131.072 94.208-199.56622222 142.10844444-28.78577778 20.13866667-46.53511111 32.54044445-57.57155555 40.39111112-3.64088889 2.61688889-7.50933333 4.55111111-11.71911111 5.80266666l-0.56888889 0.11377778-0.56888889 0.11377778c-0.68266667 0.11377778-1.36533333 0.34133333-1.93422222 0.45511111-38.11555555 52.79288889-81.57866667 124.928-99.328 175.104 9.44355555-6.59911111 19.456-13.19822222 30.03733333-19.56977778 32.88177778-20.13866667 68.72177778-37.66044445 106.496-52.224 3.41333333-1.36533333 7.05422222-2.73066667 11.71911111-4.43733333 12.85688889-4.66488889 25.94133333-9.10222222 38.912-12.97066667 28.10311111-8.53333333 57.45777778-15.58755555 87.38133334-20.93511111 23.21066667-4.20977778 49.152-10.58133333 77.02755555-19.00088889C499.37066667 711.11111111 625.77777778 651.83288889 731.36355555 584.81777778c85.44711111-54.272 196.83555555-138.46755555 241.89155556-230.51377778 20.25244445-41.41511111 21.04888889-64.28444445 15.13244444-72.02133333-5.57511111-7.28177778-21.27644445-11.264-44.25955555-11.264z m-88.17777778 172.14577778l-10.01244444 11.03644444c-2.16177778 2.38933333-5.57511111 3.18577778-8.64711111 2.16177778-5.34755555-1.93422222-6.94044445-8.64711111-3.18577778-12.85688889l10.01244444-11.03644445c2.16177778-2.38933333 5.57511111-3.18577778 8.64711112-2.16177778 5.34755555 1.93422222 6.94044445 8.64711111 3.18577777 12.8568889z m69.29066667-76.3448889L889.74222222 405.84533333c-2.16177778 2.38933333-5.57511111 3.18577778-8.64711111 2.16177778-5.34755555-1.93422222-6.94044445-8.64711111-3.18577778-12.85688889l35.38488889-39.13955555c2.16177778-2.38933333 5.57511111-3.18577778 8.64711111-2.16177778 5.34755555 2.048 7.05422222 8.76088889 3.29955556 12.97066666z" fill="#000000" p-id="9206"></path><path d="M852.76444445 430.30755555c-3.072-1.13777778-6.48533333-0.22755555-8.64711112 2.16177778l-10.01244444 11.03644445c-3.75466667 4.20977778-2.16177778 10.92266667 3.18577778 12.85688889 3.072 1.13777778 6.48533333 0.22755555 8.64711111-2.16177778l10.01244444-11.03644444c3.75466667-4.20977778 2.16177778-10.92266667-3.18577777-12.8568889zM922.05511111 353.96266667c-3.072-1.13777778-6.48533333-0.22755555-8.64711111 2.16177778l-35.38488889 39.13955555c-3.75466667 4.20977778-2.16177778 10.92266667 3.18577778 12.85688889 3.072 1.13777778 6.48533333 0.22755555 8.64711111-2.16177778l35.38488889-39.02577778c3.75466667-4.32355555 2.048-11.03644445-3.18577778-12.97066666z" fill="#e6e6e6" p-id="9207"></path></svg>