<?xml version="1.0" standalone="no"?><!DOCTYPE svg PUBLIC "-//W3C//DTD SVG 1.1//EN" "http://www.w3.org/Graphics/SVG/1.1/DTD/svg11.dtd"><svg t="1764749526710" class="icon" viewBox="0 0 1024 1024" version="1.1" xmlns="http://www.w3.org/2000/svg" p-id="21995" xmlns:xlink="http://www.w3.org/1999/xlink" width="200" height="200"><path d="M938.666667 874.666667m-320 0l-213.333334 0q-320 0-320-320l0 0q0-320 320-320l213.333334 0q320 0 320 320l0 0q0 320-320 320Z" fill="#FB9A1F" p-id="21996"></path><path d="M597.333333 234.666667h-170.666666l64-42.666667h42.666666l64 42.666667z" fill="#689F38" p-id="21997"></path><path d="M448 234.666667h149.333333a256 256 0 0 1 256 256v128a256 256 0 0 1-256 256h-170.666666A256 256 0 0 1 170.666667 618.666667v-106.666667a277.333333 277.333333 0 0 1 277.333333-277.333333z" fill="#E8911F" p-id="21998"></path><path d="M213.333333 234.666667m256 0l85.333334 0q256 0 256 256l0 128q0 256-256 256l-85.333334 0q-256 0-256-256l0-128q0-256 256-256Z" fill="#FF9F12" p-id="21999"></path><path d="M320 234.666667m170.666667 0l42.666666 0q170.666667 0 170.666667 170.666666l0 298.666667q0 170.666667-170.666667 170.666667l-42.666666 0q-170.666667 0-170.666667-170.666667l0-298.666667q0-170.666667 170.666667-170.666666Z" fill="#E8911F" p-id="22000"></path><path d="M362.666667 234.666667m149.333333 0l0 0q149.333333 0 149.333333 149.333333l0 341.333333q0 149.333333-149.333333 149.333334l0 0q-149.333333 0-149.333333-149.333334l0-341.333333q0-149.333333 149.333333-149.333333Z" fill="#FFA014" p-id="22001"></path><path d="M746.666667 512h-170.666667l149.333333-128z m-469.333334 0h170.666667l-149.333333-128z" fill="#4C3632" p-id="22002"></path><path d="M280.96 490.666667L277.333333 512h170.666667l-24.96-21.333333h-142.08zM600.96 490.666667L576 512h170.666667l-3.626667-21.333333h-142.08z" fill="#FFD089" p-id="22003"></path><path d="M704 725.333333l-64-21.333333-64 42.666667-64-42.666667-64 42.666667-64-42.666667-64 21.333333-21.333333-64 21.333333-64 64 42.666667 64-64 64 64 64-64 64 64 64-42.666667 21.333333 64-21.333333 64z" fill="#4C3632" p-id="22004"></path><path d="M690.986667 695.893333L640 672.426667l-64 42.666666-64-42.666666-64 42.666666-64-42.666666-52.266667 26.24L298.666667 661.333333l21.333333 64 64-21.333333 64 42.666667 64-42.666667 64 42.666667 64-42.666667 64 21.333333 21.333333-64-34.346666 34.56z" fill="#FFD089" p-id="22005"></path><path d="M512 469.333333l-42.666667 85.333334 42.666667-8.533334 42.666667 8.533334-42.666667-85.333334z" fill="#4C3632" p-id="22006"></path><path d="M512 524.8l-30.933333 6.186667L469.333333 554.666667l42.666667-8.533334 42.666667 8.533334-11.733334-23.68L512 524.8z" fill="#FFD089" p-id="22007"></path></svg>